<mxfile host="app.diagrams.net" modified="2023-12-24T10:15:12.868Z" agent="Mozilla/5.0 (Macintosh; Intel Mac OS X 10_15_7) AppleWebKit/605.1.15 (KHTML, like Gecko) Version/17.2.1 Safari/605.1.15" version="22.1.11" etag="uf-crjOfR33zm-R_lXwx" type="github">
  <diagram name="Page-1" id="cAqBq4Rzb5657EgrJZbx">
    <mxGraphModel>
      <root>
        <mxCell id="0" />
        <mxCell id="1" parent="0" />
      </root>
    </mxGraphModel>
  </diagram>
</mxfile>
